<svg width="40" height="40" fill="none" xmlns="http://www.w3.org/2000/svg"><g clip-path="url(#clip0_416_2138)" stroke="#fff" stroke-linecap="round" stroke-linejoin="round"><path d="M15 8.333h-3.333a3.333 3.333 0 00-3.334 3.334v20A3.333 3.333 0 0011.667 35h16.666a3.333 3.333 0 003.334-3.333v-20a3.334 3.334 0 00-3.334-3.334H25"/><path d="M21.667 5h-3.334a3.333 3.333 0 000 6.667h3.334a3.333 3.333 0 000-6.667z"/><path d="M15 23.333h.017m-.017 5h.017" stroke-width="1.5"/><path d="M20 26.667l1.667 1.666 5-5"/></g><defs><clipPath id="clip0_416_2138"><path fill="#fff" d="M0 0h40v40H0z"/></clipPath></defs></svg>