<svg width="1300" height="133" fill="none" xmlns="http://www.w3.org/2000/svg"><path d="M1383.32 56.622v-29.4c0-1.089-2.2-2.178-7.68-2.178h-101.01c-5.49 0-7.68 1.09-7.68 2.178V58.8h108.69c5.48 0 7.68-1.089 7.68-2.178zM1226.33 5.444C1234.01 2.178 1247.19 0 1266.95 0h118.56c18.67 0 31.84 2.178 39.53 5.444 7.69 3.267 12.08 8.712 12.08 16.334v40.289c0 6.533-3.29 10.889-8.79 14.155-5.48 3.267-15.36 5.445-28.54 6.534L1447 145.91h-54.9l-47.2-63.156h-77.95v63.156h-52.7V21.778c0-7.622 3.29-11.978 12.08-16.334zm-120.77 116.512c5.49 0 7.68-1.089 7.68-2.178V27.222c0-1.089-2.19-2.178-7.68-2.178h-101c-2.2 0-4.4 0-5.494 1.09-1.098 0-2.196 1.088-2.196 1.088v92.556c0 1.089 1.098 1.089 2.196 1.089 1.094 0 3.294 1.089 5.494 1.089h101zM944.172 21.778c0-6.534 4.392-11.978 12.076-16.334C963.933 2.178 977.108 0 995.772 0h118.568c18.67 0 31.84 2.178 39.53 5.444 7.68 3.267 12.07 8.712 12.07 16.334v103.444c0 7.622-4.39 13.066-12.07 16.334-7.69 3.266-20.86 5.444-39.53 5.444H995.772c-18.664 0-31.839-2.178-39.524-5.444-7.684-3.268-12.076-8.712-12.076-16.334V21.778zM843.167 56.622v-29.4c0-1.089-2.196-2.178-7.684-2.178H734.478c-5.49 0-7.686 1.09-7.686 2.178V58.8h108.691c5.488 0 7.684-1.089 7.684-2.178zM686.172 5.444C693.856 2.178 707.031 0 725.694 0h118.571c18.665 0 31.838 2.178 40.622 5.444 7.685 3.267 12.076 8.712 12.076 16.334v40.289c0 6.533-3.293 10.889-8.782 14.155-5.49 3.267-15.371 5.445-28.545 6.534l47.208 63.155H851.95l-47.208-63.156h-77.95v63.156h-52.697V21.778c0-7.622 3.293-11.978 12.077-16.334zM573.09 56.622v-29.4c0-1.089-2.195-2.178-7.684-2.178H464.401c-5.49 0-7.686 1.09-7.686 2.178V58.8h108.691c5.489 0 7.684-1.089 7.684-2.178zM416.095 5.444C423.78 2.178 436.954 0 455.618 0h118.57c18.664 0 31.838 2.178 40.622 5.444 7.685 3.267 12.077 8.712 12.077 16.334v40.289c0 6.533-3.294 10.889-8.784 14.155-5.489 3.267-15.371 5.445-28.544 6.534l47.208 63.155h-54.894l-47.208-63.156h-77.95v63.156h-52.698V21.778c0-7.622 3.294-11.978 12.078-16.334zM304.112 0h52.697v147h-52.697V0zM155.899 25.044V147h-53.797V25.044H52.698V147H0V0h206.4c18.664 0 31.839 2.178 40.622 5.444 7.684 3.267 12.076 8.712 12.076 16.334V147h-53.796V27.222c0-1.089-1.097-1.089-2.195-1.089-1.098 0-3.294-1.089-5.49-1.089h-41.718z" fill="#fff" fill-opacity=".05"/></svg>