<svg width="40" height="40" fill="none" xmlns="http://www.w3.org/2000/svg"><g clip-path="url(#clip0_329_479)" stroke="#BF0902" stroke-linecap="round" stroke-linejoin="round"><path d="M25 30a5 5 0 100-10 5 5 0 000 10z"/><path d="M21.667 29.167v7.5l3.333-2.5 3.333 2.5v-7.5"/><path d="M16.667 31.667H8.333A3.333 3.333 0 015 28.333V11.667c0-1.834 1.5-3.334 3.333-3.334h23.334A3.333 3.333 0 0135 11.667v16.666a3.334 3.334 0 01-1.667 2.884M10 15h20m-20 5h5m-5 5h3.333"/></g><defs><clipPath id="clip0_329_479"><path fill="#fff" d="M0 0h40v40H0z"/></clipPath></defs></svg>