<svg width="40" height="40" fill="none" xmlns="http://www.w3.org/2000/svg"><g clip-path="url(#clip0_320_727)" stroke="#BF0902" stroke-linecap="round" stroke-linejoin="round"><path d="M11.667 11.667a3.333 3.333 0 100-6.667 3.333 3.333 0 000 6.667zm-3.334 25v-8.334l-1.666-1.666V20a1.667 1.667 0 011.666-1.667H15A1.667 1.667 0 0116.667 20v6.667L15 28.333v8.334m13.333-25a3.333 3.333 0 100-6.667 3.333 3.333 0 000 6.667zm-3.333 25V30h-3.333L25 20a1.667 1.667 0 011.667-1.667H30A1.667 1.667 0 0131.667 20L35 30h-3.333v6.667"/></g><defs><clipPath id="clip0_320_727"><path fill="#fff" d="M0 0h40v40H0z"/></clipPath></defs></svg>