<svg width="40" height="40" fill="none" xmlns="http://www.w3.org/2000/svg"><g clip-path="url(#clip0_329_456)" stroke="#BF0902" stroke-linecap="round" stroke-linejoin="round"><path d="M20 30c5.523 0 10-4.477 10-10s-4.477-10-10-10-10 4.477-10 10 4.477 10 10 10z"/><path d="M8.333 16.667a3.333 3.333 0 100-6.667 3.333 3.333 0 000 6.667zM20 10a3.333 3.333 0 100-6.667A3.333 3.333 0 0020 10zm11.667 6.667a3.333 3.333 0 100-6.667 3.333 3.333 0 000 6.667zM8.333 30a3.333 3.333 0 100-6.667 3.333 3.333 0 000 6.667zm23.334 0a3.333 3.333 0 100-6.667 3.333 3.333 0 000 6.667zm-18.334 6.667L20 20l6.667 16.667"/></g><defs><clipPath id="clip0_329_456"><path fill="#fff" d="M0 0h40v40H0z"/></clipPath></defs></svg>