<svg width="20" height="20" fill="none" xmlns="http://www.w3.org/2000/svg"><g clip-path="url(#clip0_416_2830)" stroke="#BF0902" stroke-linecap="round" stroke-linejoin="round"><path d="M4.167 3.333h11.667a.833.833 0 01.833.834v4.166a.833.833 0 01-.833.834h-5.833a.833.833 0 00-.834.833v5.833a.833.833 0 01-.833.834H4.167a.833.833 0 01-.833-.834V4.167a.833.833 0 01.833-.834zm-.833 3.334h1.667M3.334 10h2.5m-2.5 3.333h1.667m1.665-10V5M10 3.333v2.5m3.334-2.5V5"/></g><defs><clipPath id="clip0_416_2830"><path fill="#fff" d="M0 0h20v20H0z"/></clipPath></defs></svg>