<svg width="30" height="30" fill="none" xmlns="http://www.w3.org/2000/svg"><path d="M21.25 23.038h-5l-5.563 3.7A1.246 1.246 0 018.75 25.7v-2.662c-3.75 0-6.25-2.5-6.25-6.25v-7.5c0-3.75 2.5-6.25 6.25-6.25h12.5c3.75 0 6.25 2.5 6.25 6.25v7.5c0 3.75-2.5 6.25-6.25 6.25z" stroke="#120600" stroke-miterlimit="10" stroke-linecap="round" stroke-linejoin="round"/><path d="M15 14.2v-.262c0-.85.525-1.3 1.05-1.663.512-.35 1.025-.8 1.025-1.625A2.07 2.07 0 0015 8.575a2.07 2.07 0 00-2.075 2.075m2.069 6.538h.012" stroke="#120600" stroke-linecap="round" stroke-linejoin="round"/></svg>