<svg width="10" height="10" fill="none" xmlns="http://www.w3.org/2000/svg"><path d="M7.21 10C3.236 10 0 6.765 0 2.79A2.814 2.814 0 012.449.004a.816.816 0 01.836.48l1.006 2.35a.796.796 0 01-.07.755l-.83 1.272a3.83 3.83 0 001.762 1.753l1.257-.836a.781.781 0 01.756-.065l2.348 1.001a.816.816 0 01.481.836A2.814 2.814 0 017.211 10zM2.55.801A2.003 2.003 0 00.8 2.79 6.415 6.415 0 007.21 9.2a2.003 2.003 0 001.989-1.75l-2.349-1-1.252.836a.801.801 0 01-.786.055A4.632 4.632 0 012.67 5.208a.801.801 0 01.05-.786l.836-1.272L2.55.8z" fill="#BF0902"/></svg>