<svg width="30" height="30" fill="none" xmlns="http://www.w3.org/2000/svg"><path d="M25.625 14.125V8.8c0-5.037-1.175-6.3-5.9-6.3h-9.45c-4.725 0-5.9 1.263-5.9 6.3v14.075c0 3.325 1.825 4.113 4.038 1.738l.012-.013c1.025-1.088 2.587-1 3.475.188l1.262 1.687M10 8.75h10m-8.75 5h7.5" stroke="#120600" stroke-linecap="round" stroke-linejoin="round"/><path d="M22.764 18.463l-4.425 4.425a1.54 1.54 0 00-.375.737l-.238 1.688c-.087.612.338 1.037.95.95l1.688-.238c.237-.037.575-.2.737-.375l4.425-4.425c.763-.762 1.125-1.65 0-2.775-1.112-1.112-2-.75-2.762.013zm-.64.637a3.982 3.982 0 002.775 2.775" stroke="#120600" stroke-miterlimit="10" stroke-linecap="round" stroke-linejoin="round"/></svg>