<svg xmlns="http://www.w3.org/2000/svg" width="78" height="804" fill="#F5F5F5"><g transform="rotate(90 39 39)"><mask id="path-1-inside-1_416_3303" fill="#F5F5F5"><path d="M768.616 30.044v-15.6c0-.577-1.219-1.155-4.265-1.155h-56.124c-3.05 0-4.27.578-4.27 1.155V31.2h60.394c3.046 0 4.265-.578 4.265-1.155zM681.386 2.89C685.656 1.156 692.977 0 703.957 0h65.878c10.373 0 17.692 1.156 21.964 2.889 4.273 1.733 6.71 4.622 6.71 8.667v21.377c0 3.467-1.828 5.778-4.882 7.511-3.046 1.734-8.538 2.89-15.857 3.467L804 77.422h-30.502l-26.23-33.51h-43.311v33.51h-29.281V11.556c0-4.045 1.83-6.356 6.71-8.667zm-67.102 61.82c3.05 0 4.271-.578 4.271-1.155v-49.11c0-.578-1.221-1.156-4.271-1.156h-56.121c-1.22 0-2.44 0-3.05.578-.61 0-1.22.577-1.22.577v49.112c0 .577.61.577 1.22.577s1.83.578 3.05.578h56.121zm-89.671-53.155c0-3.467 2.44-6.356 6.709-8.667C535.593 1.156 542.913 0 553.283 0h65.882c10.37 0 17.69 1.156 21.96 2.889 4.27 1.733 6.71 4.622 6.71 8.667v54.888c0 4.045-2.44 6.933-6.71 8.667-4.27 1.733-11.59 2.889-21.96 2.889h-65.882c-10.37 0-17.69-1.156-21.961-2.889-4.269-1.734-6.709-4.622-6.709-8.667V11.556zm-56.122 18.489v-15.6c0-.578-1.22-1.156-4.27-1.156H408.1c-3.051 0-4.271.578-4.271 1.155V31.2h60.392c3.05 0 4.27-.578 4.27-1.155zM381.259 2.889C385.529 1.156 392.849 0 403.219 0h65.882c10.371 0 17.69 1.156 22.571 2.889 4.27 1.733 6.709 4.622 6.709 8.667v21.377c0 3.467-1.829 5.778-4.879 7.511-3.05 1.734-8.541 2.89-15.86 3.467l26.23 33.511h-30.501l-26.23-33.51h-43.312v33.51h-29.28V11.556c0-4.045 1.83-6.356 6.71-8.667zm-62.832 27.155v-15.6c0-.577-1.219-1.155-4.269-1.155h-56.122c-3.05 0-4.27.578-4.27 1.155V31.2h60.392c3.05 0 4.269-.578 4.269-1.155zM231.196 2.89c4.27-1.734 11.59-2.89 21.96-2.89h65.881c10.371 0 17.691 1.156 22.571 2.889 4.27 1.733 6.71 4.622 6.71 8.667v21.377c0 3.467-1.83 5.778-4.88 7.511-3.05 1.734-8.54 2.89-15.86 3.467l26.23 33.511h-30.5l-26.231-33.51h-43.311v33.51h-29.281V11.556c0-4.045 1.83-6.356 6.711-8.667zM168.974 0h29.281v78h-29.281V0zM86.622 13.289V78h-29.89V13.289H29.28V78H0V0h114.683c10.37 0 17.69 1.156 22.571 2.889 4.269 1.733 6.709 4.622 6.709 8.667V78h-29.89V14.444c0-.577-.61-.577-1.22-.577s-1.831-.578-3.051-.578h-23.18z"/></mask><path d="M768.616 30.044v-15.6c0-.577-1.219-1.155-4.265-1.155h-56.124c-3.05 0-4.27.578-4.27 1.155V31.2h60.394c3.046 0 4.265-.578 4.265-1.155zM681.386 2.89C685.656 1.156 692.977 0 703.957 0h65.878c10.373 0 17.692 1.156 21.964 2.889 4.273 1.733 6.71 4.622 6.71 8.667v21.377c0 3.467-1.828 5.778-4.882 7.511-3.046 1.734-8.538 2.89-15.857 3.467L804 77.422h-30.502l-26.23-33.51h-43.311v33.51h-29.281V11.556c0-4.045 1.83-6.356 6.71-8.667zm-67.102 61.82c3.05 0 4.271-.578 4.271-1.155v-49.11c0-.578-1.221-1.156-4.271-1.156h-56.121c-1.22 0-2.44 0-3.05.578-.61 0-1.22.577-1.22.577v49.112c0 .577.61.577 1.22.577s1.83.578 3.05.578h56.121zm-89.671-53.155c0-3.467 2.44-6.356 6.709-8.667C535.593 1.156 542.913 0 553.283 0h65.882c10.37 0 17.69 1.156 21.96 2.889 4.27 1.733 6.71 4.622 6.71 8.667v54.888c0 4.045-2.44 6.933-6.71 8.667-4.27 1.733-11.59 2.889-21.96 2.889h-65.882c-10.37 0-17.69-1.156-21.961-2.889-4.269-1.734-6.709-4.622-6.709-8.667V11.556zm-56.122 18.489v-15.6c0-.578-1.22-1.156-4.27-1.156H408.1c-3.051 0-4.271.578-4.271 1.155V31.2h60.392c3.05 0 4.27-.578 4.27-1.155zM381.259 2.889C385.529 1.156 392.849 0 403.219 0h65.882c10.371 0 17.69 1.156 22.571 2.889 4.27 1.733 6.709 4.622 6.709 8.667v21.377c0 3.467-1.829 5.778-4.879 7.511-3.05 1.734-8.541 2.89-15.86 3.467l26.23 33.511h-30.501l-26.23-33.51h-43.312v33.51h-29.28V11.556c0-4.045 1.83-6.356 6.71-8.667zm-62.832 27.155v-15.6c0-.577-1.219-1.155-4.269-1.155h-56.122c-3.05 0-4.27.578-4.27 1.155V31.2h60.392c3.05 0 4.269-.578 4.269-1.155zM231.196 2.89c4.27-1.734 11.59-2.89 21.96-2.89h65.881c10.371 0 17.691 1.156 22.571 2.889 4.27 1.733 6.71 4.622 6.71 8.667v21.377c0 3.467-1.83 5.778-4.88 7.511-3.05 1.734-8.54 2.89-15.86 3.467l26.23 33.511h-30.5l-26.231-33.51h-43.311v33.51h-29.281V11.556c0-4.045 1.83-6.356 6.711-8.667zM168.974 0h29.281v78h-29.281V0zM86.622 13.289V78h-29.89V13.289H29.28V78H0V0h114.683c10.37 0 17.69 1.156 22.571 2.889 4.269 1.733 6.709 4.622 6.709 8.667V78h-29.89V14.444c0-.577-.61-.577-1.22-.577s-1.831-.578-3.051-.578h-23.18z" stroke="#BF0902" stroke-opacity=".1" stroke-width="2" mask="url(#path-1-inside-1_416_3303)"/></g></svg>