<svg width="922" height="76" fill="none" xmlns="http://www.w3.org/2000/svg"><mask id="path-1-inside-1_1341_4094" fill="#fff"><path d="M661.821 36.652v-12.8c0-.474-1.007-.948-3.523-.948h-46.351c-2.519 0-3.526.474-3.526.948V37.6h49.877c2.516 0 3.523-.474 3.523-.948zM589.78 14.37c3.527-1.422 9.573-2.37 18.641-2.37h54.406c8.567 0 14.612.948 18.14 2.37 3.529 1.423 5.541 3.793 5.541 7.112v17.54c0 2.845-1.509 4.741-4.031 6.163-2.516 1.422-7.051 2.37-13.096 2.845l21.662 27.496h-25.19L644.19 48.03h-35.769v27.496h-24.182V21.482c0-3.319 1.511-5.215 5.541-7.112zm-55.417 50.726c2.519 0 3.526-.474 3.526-.948V23.852c0-.474-1.007-.948-3.526-.948h-46.349c-1.007 0-2.015 0-2.519.474-.504 0-1.007.474-1.007.474v40.296c0 .474.503.474 1.007.474.504 0 1.512.474 2.519.474h46.349zm-74.057-43.615c0-2.844 2.015-5.214 5.541-7.11 3.527-1.423 9.572-2.371 18.137-2.371h54.409c8.565 0 14.61.948 18.137 2.37 3.526 1.423 5.541 3.793 5.541 7.112v45.037c0 3.318-2.015 5.688-5.541 7.11-3.527 1.423-9.572 2.371-18.137 2.371h-54.409c-8.565 0-14.61-.948-18.137-2.37-3.526-1.423-5.541-3.793-5.541-7.111V21.48zm-46.35 15.17v-12.8c0-.473-1.007-.947-3.526-.947h-46.349c-2.519 0-3.527.474-3.527.948V37.6h49.876c2.519 0 3.526-.474 3.526-.948zm-72.042-22.28C345.44 12.947 351.486 12 360.05 12h54.41c8.565 0 14.61.948 18.641 2.37 3.526 1.423 5.541 3.793 5.541 7.112v17.54c0 2.845-1.511 4.741-4.03 6.163-2.519 1.422-7.053 2.37-13.098 2.845l21.662 27.496h-25.189L396.324 48.03h-35.77v27.496h-24.182V21.482c0-3.319 1.512-5.215 5.542-7.112zm-51.891 22.28v-12.8c0-.473-1.007-.947-3.526-.947h-46.349c-2.519 0-3.527.474-3.527.948V37.6h49.876c2.519 0 3.526-.474 3.526-.948zm-72.042-22.28c3.527-1.423 9.572-2.371 18.137-2.371h54.409c8.565 0 14.61.948 18.641 2.37 3.526 1.423 5.541 3.793 5.541 7.112v17.54c0 2.845-1.511 4.741-4.03 6.163-2.519 1.422-7.053 2.37-13.099 2.845l21.663 27.496h-25.189L272.391 48.03h-35.77v27.496h-24.182V21.482c0-3.319 1.512-5.215 5.542-7.112zM166.594 12h24.182v64h-24.182V12zM98.582 22.904V76H73.896V22.904h-22.67V76H27.043V12h94.713c8.564 0 14.61.948 18.64 2.37 3.526 1.423 5.542 3.793 5.542 7.112V76h-24.686V23.852c0-.474-.504-.474-1.008-.474s-1.511-.474-2.519-.474H98.582z"/></mask><path d="M661.821 36.652v-12.8c0-.474-1.007-.948-3.523-.948h-46.351c-2.519 0-3.526.474-3.526.948V37.6h49.877c2.516 0 3.523-.474 3.523-.948zM589.78 14.37c3.527-1.422 9.573-2.37 18.641-2.37h54.406c8.567 0 14.612.948 18.14 2.37 3.529 1.423 5.541 3.793 5.541 7.112v17.54c0 2.845-1.509 4.741-4.031 6.163-2.516 1.422-7.051 2.37-13.096 2.845l21.662 27.496h-25.19L644.19 48.03h-35.769v27.496h-24.182V21.482c0-3.319 1.511-5.215 5.541-7.112zm-55.417 50.726c2.519 0 3.526-.474 3.526-.948V23.852c0-.474-1.007-.948-3.526-.948h-46.349c-1.007 0-2.015 0-2.519.474-.504 0-1.007.474-1.007.474v40.296c0 .474.503.474 1.007.474.504 0 1.512.474 2.519.474h46.349zm-74.057-43.615c0-2.844 2.015-5.214 5.541-7.11 3.527-1.423 9.572-2.371 18.137-2.371h54.409c8.565 0 14.61.948 18.137 2.37 3.526 1.423 5.541 3.793 5.541 7.112v45.037c0 3.318-2.015 5.688-5.541 7.11-3.527 1.423-9.572 2.371-18.137 2.371h-54.409c-8.565 0-14.61-.948-18.137-2.37-3.526-1.423-5.541-3.793-5.541-7.111V21.48zm-46.35 15.17v-12.8c0-.473-1.007-.947-3.526-.947h-46.349c-2.519 0-3.527.474-3.527.948V37.6h49.876c2.519 0 3.526-.474 3.526-.948zm-72.042-22.28C345.44 12.947 351.486 12 360.05 12h54.41c8.565 0 14.61.948 18.641 2.37 3.526 1.423 5.541 3.793 5.541 7.112v17.54c0 2.845-1.511 4.741-4.03 6.163-2.519 1.422-7.053 2.37-13.098 2.845l21.662 27.496h-25.189L396.324 48.03h-35.77v27.496h-24.182V21.482c0-3.319 1.512-5.215 5.542-7.112zm-51.891 22.28v-12.8c0-.473-1.007-.947-3.526-.947h-46.349c-2.519 0-3.527.474-3.527.948V37.6h49.876c2.519 0 3.526-.474 3.526-.948zm-72.042-22.28c3.527-1.423 9.572-2.371 18.137-2.371h54.409c8.565 0 14.61.948 18.641 2.37 3.526 1.423 5.541 3.793 5.541 7.112v17.54c0 2.845-1.511 4.741-4.03 6.163-2.519 1.422-7.053 2.37-13.099 2.845l21.663 27.496h-25.189L272.391 48.03h-35.77v27.496h-24.182V21.482c0-3.319 1.512-5.215 5.542-7.112zM166.594 12h24.182v64h-24.182V12zM98.582 22.904V76H73.896V22.904h-22.67V76H27.043V12h94.713c8.564 0 14.61.948 18.64 2.37 3.526 1.423 5.542 3.793 5.542 7.112V76h-24.686V23.852c0-.474-.504-.474-1.008-.474s-1.511-.474-2.519-.474H98.582z" stroke="#BF0902" stroke-width="2" mask="url(#path-1-inside-1_1341_4094)"/><mask id="mask0_1341_4094" style="mask-type:alpha" maskUnits="userSpaceOnUse" x="0" y="0" width="922" height="68"><rect x=".5" y=".5" width="920.087" height="66.739" rx="9.5" fill="#DEDEDE" stroke="#BF0902"/></mask><g mask="url(#mask0_1341_4094)"><mask id="path-3-inside-2_1341_4094" fill="#fff"><path d="M647.335 26.471V13.585c0-.478-1.007-.955-3.524-.955h-46.363c-2.52 0-3.527.477-3.527.954v13.842h49.89c2.517 0 3.524-.477 3.524-.954zM575.275 4.04c3.528-1.432 9.575-2.387 18.646-2.387h54.42c8.569 0 14.616.955 18.145 2.387s5.543 3.818 5.543 7.16v17.659c0 2.864-1.51 4.773-4.033 6.205-2.517 1.432-7.053 2.386-13.099 2.863l21.668 27.683h-25.197L629.7 37.927h-35.779v27.682h-24.189V11.2c0-3.342 1.512-5.251 5.543-7.16zm-55.432 51.07c2.52 0 3.528-.477 3.528-.954v-40.57c0-.478-1.008-.955-3.528-.955h-46.36c-1.008 0-2.016 0-2.52.477-.504 0-1.008.478-1.008.478v40.57c0 .477.504.477 1.008.477s1.512.477 2.52.477h46.36zM445.767 11.2c0-2.865 2.015-5.251 5.542-7.16 3.528-1.432 9.575-2.387 18.142-2.387h54.424c8.566 0 14.614.955 18.141 2.387 3.527 1.432 5.543 3.818 5.543 7.16v45.34c0 3.341-2.016 5.727-5.543 7.16-3.527 1.431-9.575 2.386-18.141 2.386h-54.424c-8.567 0-14.614-.955-18.142-2.387-3.527-1.432-5.542-3.818-5.542-7.159V11.198zm-46.362 15.27V13.585c0-.478-1.008-.955-3.527-.955h-46.361c-2.52 0-3.528.477-3.528.954v13.842h49.889c2.519 0 3.527-.477 3.527-.954zM327.344 4.04c3.527-1.432 9.575-2.387 18.141-2.387h54.424c8.567 0 14.614.955 18.646 2.387 3.527 1.432 5.543 3.818 5.543 7.16v17.659c0 2.864-1.512 4.773-4.031 6.205-2.52 1.432-7.056 2.386-13.102 2.863l21.668 27.683h-25.196l-21.669-27.682h-35.779V65.61h-24.188V11.2c0-3.342 1.512-5.251 5.543-7.16zM275.44 26.47V13.585c0-.478-1.008-.955-3.527-.955h-46.362c-2.519 0-3.527.477-3.527.954v13.842h49.889c2.519 0 3.527-.477 3.527-.954zM203.379 4.04c3.527-1.432 9.574-2.387 18.141-2.387h54.424c8.567 0 14.613.955 18.645 2.387 3.528 1.432 5.543 3.818 5.543 7.16v17.659c0 2.864-1.511 4.773-4.031 6.205-2.52 1.432-7.055 2.386-13.102 2.863l21.668 27.683h-25.196l-21.668-27.682h-35.779V65.61h-24.189V11.2c0-3.342 1.512-5.251 5.544-7.16zm-51.4-2.387h24.188v64.435h-24.188V1.652zM83.949 12.63v53.457H59.256V12.63H36.58v53.457H12.39V1.652h94.738c8.567 0 14.614.955 18.645 2.387 3.528 1.432 5.543 3.818 5.543 7.16v54.888h-24.692V13.584c0-.477-.504-.477-1.008-.477s-1.512-.477-2.52-.477H83.949z"/></mask><path d="M647.335 26.471V13.585c0-.478-1.007-.955-3.524-.955h-46.363c-2.52 0-3.527.477-3.527.954v13.842h49.89c2.517 0 3.524-.477 3.524-.954zM575.275 4.04c3.528-1.432 9.575-2.387 18.646-2.387h54.42c8.569 0 14.616.955 18.145 2.387s5.543 3.818 5.543 7.16v17.659c0 2.864-1.51 4.773-4.033 6.205-2.517 1.432-7.053 2.386-13.099 2.863l21.668 27.683h-25.197L629.7 37.927h-35.779v27.682h-24.189V11.2c0-3.342 1.512-5.251 5.543-7.16zm-55.432 51.07c2.52 0 3.528-.477 3.528-.954v-40.57c0-.478-1.008-.955-3.528-.955h-46.36c-1.008 0-2.016 0-2.52.477-.504 0-1.008.478-1.008.478v40.57c0 .477.504.477 1.008.477s1.512.477 2.52.477h46.36zM445.767 11.2c0-2.865 2.015-5.251 5.542-7.16 3.528-1.432 9.575-2.387 18.142-2.387h54.424c8.566 0 14.614.955 18.141 2.387 3.527 1.432 5.543 3.818 5.543 7.16v45.34c0 3.341-2.016 5.727-5.543 7.16-3.527 1.431-9.575 2.386-18.141 2.386h-54.424c-8.567 0-14.614-.955-18.142-2.387-3.527-1.432-5.542-3.818-5.542-7.159V11.198zm-46.362 15.27V13.585c0-.478-1.008-.955-3.527-.955h-46.361c-2.52 0-3.528.477-3.528.954v13.842h49.889c2.519 0 3.527-.477 3.527-.954zM327.344 4.04c3.527-1.432 9.575-2.387 18.141-2.387h54.424c8.567 0 14.614.955 18.646 2.387 3.527 1.432 5.543 3.818 5.543 7.16v17.659c0 2.864-1.512 4.773-4.031 6.205-2.52 1.432-7.056 2.386-13.102 2.863l21.668 27.683h-25.196l-21.669-27.682h-35.779V65.61h-24.188V11.2c0-3.342 1.512-5.251 5.543-7.16zM275.44 26.47V13.585c0-.478-1.008-.955-3.527-.955h-46.362c-2.519 0-3.527.477-3.527.954v13.842h49.889c2.519 0 3.527-.477 3.527-.954zM203.379 4.04c3.527-1.432 9.574-2.387 18.141-2.387h54.424c8.567 0 14.613.955 18.645 2.387 3.528 1.432 5.543 3.818 5.543 7.16v17.659c0 2.864-1.511 4.773-4.031 6.205-2.52 1.432-7.055 2.386-13.102 2.863l21.668 27.683h-25.196l-21.668-27.682h-35.779V65.61h-24.189V11.2c0-3.342 1.512-5.251 5.544-7.16zm-51.4-2.387h24.188v64.435h-24.188V1.652zM83.949 12.63v53.457H59.256V12.63H36.58v53.457H12.39V1.652h94.738c8.567 0 14.614.955 18.645 2.387 3.528 1.432 5.543 3.818 5.543 7.16v54.888h-24.692V13.584c0-.477-.504-.477-1.008-.477s-1.512-.477-2.52-.477H83.949z" fill="#BF0902" stroke="#BF0902" stroke-width="2" mask="url(#path-3-inside-2_1341_4094)"/></g></svg>