<svg width="1300" height="133" viewBox="0 0 1300 133" fill="none" xmlns="http://www.w3.org/2000/svg">
<path d="M1383.32 56.6223V27.2223C1383.32 26.1334 1381.12 25.0444 1375.64 25.0444H1274.63C1269.14 25.0444 1266.95 26.1334 1266.95 27.2223V58.8H1375.64C1381.12 58.8 1383.32 57.7111 1383.32 56.6223ZM1226.33 5.44444C1234.01 2.17778 1247.19 0 1266.95 0H1385.51C1404.18 0 1417.35 2.17778 1425.04 5.44444C1432.73 8.71111 1437.12 14.1556 1437.12 21.7778V62.0666C1437.12 68.6 1433.83 72.9556 1428.33 76.2222C1422.85 79.4889 1412.97 81.6667 1399.79 82.7555L1447 145.911H1392.1L1344.9 82.7555H1266.95V145.911H1214.25V21.7778C1214.25 14.1556 1217.54 9.79999 1226.33 5.44444ZM1105.56 121.956C1111.05 121.956 1113.24 120.867 1113.24 119.778V27.2223C1113.24 26.1334 1111.05 25.0444 1105.56 25.0444H1004.56C1002.36 25.0444 1000.16 25.0444 999.066 26.1334C997.968 26.1334 996.87 27.2223 996.87 27.2223V119.778C996.87 120.867 997.968 120.867 999.066 120.867C1000.16 120.867 1002.36 121.956 1004.56 121.956H1105.56ZM944.172 21.7778C944.172 15.2444 948.564 9.79999 956.248 5.44444C963.933 2.17778 977.108 0 995.772 0H1114.34C1133.01 0 1146.18 2.17778 1153.87 5.44444C1161.55 8.71111 1165.94 14.1556 1165.94 21.7778V125.222C1165.94 132.844 1161.55 138.288 1153.87 141.556C1146.18 144.822 1133.01 147 1114.34 147H995.772C977.108 147 963.933 144.822 956.248 141.556C948.564 138.288 944.172 132.844 944.172 125.222V21.7778ZM843.167 56.6223V27.2223C843.167 26.1334 840.971 25.0444 835.483 25.0444H734.478C728.988 25.0444 726.792 26.1334 726.792 27.2223V58.8H835.483C840.971 58.8 843.167 57.7111 843.167 56.6223ZM686.172 5.44444C693.856 2.17778 707.031 0 725.694 0H844.265C862.93 0 876.103 2.17778 884.887 5.44444C892.572 8.71111 896.963 14.1556 896.963 21.7778V62.0666C896.963 68.6 893.67 72.9556 888.181 76.2222C882.691 79.4889 872.81 81.6667 859.636 82.7555L906.844 145.911H851.95L804.742 82.7555H726.792V145.911H674.095V21.7778C674.095 14.1556 677.388 9.79999 686.172 5.44444ZM573.09 56.6223V27.2223C573.09 26.1334 570.895 25.0444 565.406 25.0444H464.401C458.911 25.0444 456.715 26.1334 456.715 27.2223V58.8H565.406C570.895 58.8 573.09 57.7111 573.09 56.6223ZM416.095 5.44444C423.78 2.17778 436.954 0 455.618 0H574.188C592.852 0 606.026 2.17778 614.81 5.44444C622.495 8.71111 626.887 14.1556 626.887 21.7778V62.0666C626.887 68.6 623.593 72.9556 618.103 76.2222C612.614 79.4889 602.732 81.6667 589.559 82.7555L636.767 145.911H581.873L534.665 82.7555H456.715V145.911H404.017V21.7778C404.017 14.1556 407.311 9.79999 416.095 5.44444ZM304.112 0H356.809V147H304.112V0ZM155.899 25.0444V147H102.102V25.0444H52.698V147H0V0H206.4C225.064 0 238.239 2.17778 247.022 5.44444C254.706 8.71111 259.098 14.1556 259.098 21.7778V147H205.302V27.2223C205.302 26.1334 204.205 26.1334 203.107 26.1334C202.009 26.1334 199.813 25.0444 197.617 25.0444H155.899Z" fill="white" fill-opacity="0.05"/>
</svg>
