<svg width="40" height="40" viewBox="0 0 40 40" fill="none" xmlns="http://www.w3.org/2000/svg">
<g clip-path="url(#clip0_320_727)">
<path d="M11.6666 11.6667C13.5075 11.6667 14.9999 10.1743 14.9999 8.33333C14.9999 6.49238 13.5075 5 11.6666 5C9.82564 5 8.33325 6.49238 8.33325 8.33333C8.33325 10.1743 9.82564 11.6667 11.6666 11.6667Z" stroke="#BF0902" stroke-linecap="round" stroke-linejoin="round"/>
<path d="M8.33341 36.6667V28.3333L6.66675 26.6667V20C6.66675 19.558 6.84234 19.1341 7.1549 18.8215C7.46746 18.5089 7.89139 18.3333 8.33341 18.3333H15.0001C15.4421 18.3333 15.866 18.5089 16.1786 18.8215C16.4912 19.1341 16.6667 19.558 16.6667 20V26.6667L15.0001 28.3333V36.6667" stroke="#BF0902" stroke-linecap="round" stroke-linejoin="round"/>
<path d="M28.3333 11.6667C30.1743 11.6667 31.6667 10.1743 31.6667 8.33333C31.6667 6.49238 30.1743 5 28.3333 5C26.4924 5 25 6.49238 25 8.33333C25 10.1743 26.4924 11.6667 28.3333 11.6667Z" stroke="#BF0902" stroke-linecap="round" stroke-linejoin="round"/>
<path d="M25.0001 36.6667V30H21.6667L25.0001 20C25.0001 19.558 25.1757 19.1341 25.4882 18.8215C25.8008 18.5089 26.2247 18.3333 26.6667 18.3333H30.0001C30.4421 18.3333 30.866 18.5089 31.1786 18.8215C31.4912 19.1341 31.6667 19.558 31.6667 20L35.0001 30H31.6667V36.6667" stroke="#BF0902" stroke-linecap="round" stroke-linejoin="round"/>
</g>
<defs>
<clipPath id="clip0_320_727">
<rect width="40" height="40" fill="white"/>
</clipPath>
</defs>
</svg>
