<svg width="40" height="40" viewBox="0 0 40 40" fill="none" xmlns="http://www.w3.org/2000/svg">
<g clip-path="url(#clip0_329_479)">
<path d="M25 30C27.7614 30 30 27.7614 30 25C30 22.2386 27.7614 20 25 20C22.2386 20 20 22.2386 20 25C20 27.7614 22.2386 30 25 30Z" stroke="#BF0902" stroke-linecap="round" stroke-linejoin="round"/>
<path d="M21.6667 29.1667V36.6667L25.0001 34.1667L28.3334 36.6667V29.1667" stroke="#BF0902" stroke-linecap="round" stroke-linejoin="round"/>
<path d="M16.6667 31.6667H8.33333C7.44928 31.6667 6.60143 31.3155 5.97631 30.6903C5.35119 30.0652 5 29.2174 5 28.3333V11.6667C5 9.83333 6.5 8.33333 8.33333 8.33333H31.6667C32.5507 8.33333 33.3986 8.68452 34.0237 9.30964C34.6488 9.93476 35 10.7826 35 11.6667V28.3333C34.9994 28.9179 34.8451 29.492 34.5526 29.9981C34.26 30.5041 33.8396 30.9244 33.3333 31.2167" stroke="#BF0902" stroke-linecap="round" stroke-linejoin="round"/>
<path d="M10 15H30" stroke="#BF0902" stroke-linecap="round" stroke-linejoin="round"/>
<path d="M10 20H15" stroke="#BF0902" stroke-linecap="round" stroke-linejoin="round"/>
<path d="M10 25H13.3333" stroke="#BF0902" stroke-linecap="round" stroke-linejoin="round"/>
</g>
<defs>
<clipPath id="clip0_329_479">
<rect width="40" height="40" fill="white"/>
</clipPath>
</defs>
</svg>
