<svg width="40" height="40" viewBox="0 0 40 40" fill="none" xmlns="http://www.w3.org/2000/svg">
<g clip-path="url(#clip0_329_456)">
<path d="M20 30C25.5228 30 30 25.5228 30 20C30 14.4772 25.5228 10 20 10C14.4772 10 10 14.4772 10 20C10 25.5228 14.4772 30 20 30Z" stroke="#BF0902" stroke-linecap="round" stroke-linejoin="round"/>
<path d="M8.33333 16.6667C10.1743 16.6667 11.6667 15.1743 11.6667 13.3333C11.6667 11.4924 10.1743 10 8.33333 10C6.49238 10 5 11.4924 5 13.3333C5 15.1743 6.49238 16.6667 8.33333 16.6667Z" stroke="#BF0902" stroke-linecap="round" stroke-linejoin="round"/>
<path d="M20.0001 10C21.841 10 23.3334 8.50762 23.3334 6.66667C23.3334 4.82572 21.841 3.33334 20.0001 3.33334C18.1591 3.33334 16.6667 4.82572 16.6667 6.66667C16.6667 8.50762 18.1591 10 20.0001 10Z" stroke="#BF0902" stroke-linecap="round" stroke-linejoin="round"/>
<path d="M31.6666 16.6667C33.5075 16.6667 34.9999 15.1743 34.9999 13.3333C34.9999 11.4924 33.5075 10 31.6666 10C29.8256 10 28.3333 11.4924 28.3333 13.3333C28.3333 15.1743 29.8256 16.6667 31.6666 16.6667Z" stroke="#BF0902" stroke-linecap="round" stroke-linejoin="round"/>
<path d="M8.33333 30C10.1743 30 11.6667 28.5076 11.6667 26.6667C11.6667 24.8257 10.1743 23.3333 8.33333 23.3333C6.49238 23.3333 5 24.8257 5 26.6667C5 28.5076 6.49238 30 8.33333 30Z" stroke="#BF0902" stroke-linecap="round" stroke-linejoin="round"/>
<path d="M31.6666 30C33.5075 30 34.9999 28.5076 34.9999 26.6667C34.9999 24.8257 33.5075 23.3333 31.6666 23.3333C29.8256 23.3333 28.3333 24.8257 28.3333 26.6667C28.3333 28.5076 29.8256 30 31.6666 30Z" stroke="#BF0902" stroke-linecap="round" stroke-linejoin="round"/>
<path d="M13.3333 36.6667L19.9999 20L26.6666 36.6667" stroke="#BF0902" stroke-linecap="round" stroke-linejoin="round"/>
</g>
<defs>
<clipPath id="clip0_329_456">
<rect width="40" height="40" fill="white"/>
</clipPath>
</defs>
</svg>
