<svg width="40" height="40" viewBox="0 0 40 40" fill="none" xmlns="http://www.w3.org/2000/svg">
<g clip-path="url(#clip0_56_492)">
<path d="M14.9999 18.3333C18.6818 18.3333 21.6666 15.3486 21.6666 11.6667C21.6666 7.98477 18.6818 5 14.9999 5C11.318 5 8.33325 7.98477 8.33325 11.6667C8.33325 15.3486 11.318 18.3333 14.9999 18.3333Z" stroke="#BF0902" stroke-linecap="round" stroke-linejoin="round"/>
<path d="M5 35V31.6667C5 29.8986 5.70238 28.2029 6.95262 26.9526C8.20286 25.7024 9.89856 25 11.6667 25H18.3333C20.1014 25 21.7971 25.7024 23.0474 26.9526C24.2976 28.2029 25 29.8986 25 31.6667V35" stroke="#BF0902" stroke-linecap="round" stroke-linejoin="round"/>
<path d="M26.6667 5.21666C28.1008 5.58383 29.3718 6.41783 30.2795 7.58718C31.1871 8.75653 31.6798 10.1947 31.6798 11.675C31.6798 13.1553 31.1871 14.5935 30.2795 15.7628C29.3718 16.9322 28.1008 17.7662 26.6667 18.1333" stroke="#BF0902" stroke-linecap="round" stroke-linejoin="round"/>
<path d="M35 35V31.6667C34.9915 30.1953 34.4965 28.768 33.5921 27.6073C32.6877 26.4467 31.4247 25.6178 30 25.25" stroke="#BF0902" stroke-linecap="round" stroke-linejoin="round"/>
</g>
<defs>
<clipPath id="clip0_56_492">
<rect width="40" height="40" fill="white"/>
</clipPath>
</defs>
</svg>
