<svg width="20" height="20" viewBox="0 0 20 20" fill="none" xmlns="http://www.w3.org/2000/svg">
<g clip-path="url(#clip0_416_2830)">
<path d="M4.16732 3.33337H15.834C16.055 3.33337 16.267 3.42117 16.4232 3.57745C16.5795 3.73373 16.6673 3.94569 16.6673 4.16671V8.33337C16.6673 8.55439 16.5795 8.76635 16.4232 8.92263C16.267 9.07891 16.055 9.16671 15.834 9.16671H10.0007C9.77964 9.16671 9.56768 9.2545 9.4114 9.41079C9.25512 9.56707 9.16732 9.77903 9.16732 10V15.8334C9.16732 16.0544 9.07952 16.2663 8.92324 16.4226C8.76696 16.5789 8.555 16.6667 8.33398 16.6667H4.16732C3.9463 16.6667 3.73434 16.5789 3.57806 16.4226C3.42178 16.2663 3.33398 16.0544 3.33398 15.8334V4.16671C3.33398 3.94569 3.42178 3.73373 3.57806 3.57745C3.73434 3.42117 3.9463 3.33337 4.16732 3.33337Z" stroke="#BF0902" stroke-linecap="round" stroke-linejoin="round"/>
<path d="M3.33398 6.66663H5.00065" stroke="#BF0902" stroke-linecap="round" stroke-linejoin="round"/>
<path d="M3.33398 10H5.83398" stroke="#BF0902" stroke-linecap="round" stroke-linejoin="round"/>
<path d="M3.33398 13.3334H5.00065" stroke="#BF0902" stroke-linecap="round" stroke-linejoin="round"/>
<path d="M6.66602 3.33337V5.00004" stroke="#BF0902" stroke-linecap="round" stroke-linejoin="round"/>
<path d="M10 3.33337V5.83337" stroke="#BF0902" stroke-linecap="round" stroke-linejoin="round"/>
<path d="M13.334 3.33337V5.00004" stroke="#BF0902" stroke-linecap="round" stroke-linejoin="round"/>
</g>
<defs>
<clipPath id="clip0_416_2830">
<rect width="20" height="20" fill="white"/>
</clipPath>
</defs>
</svg>
