<svg width="10" height="10" viewBox="0 0 10 10" fill="none" xmlns="http://www.w3.org/2000/svg">
<path d="M7.21084 10C3.23486 10 0 6.76514 0 2.78916C0.00150344 2.10716 0.250614 1.44892 0.701015 0.936803C1.15142 0.42469 1.77246 0.0935576 2.44868 0.00497236C2.62106 -0.0141409 2.79505 0.0221526 2.94542 0.10859C3.09578 0.195027 3.2147 0.327114 3.28494 0.485695L4.29145 2.83423C4.34366 2.95613 4.36459 3.08914 4.35235 3.22119C4.34011 3.35324 4.29508 3.48014 4.22135 3.59036L3.3901 4.86228C3.7665 5.62617 4.38672 6.24286 5.15275 6.61491L6.40964 5.77865C6.51975 5.70443 6.64696 5.6595 6.77927 5.64811C6.91157 5.63672 7.0446 5.65924 7.16577 5.71355L9.5143 6.71506C9.67289 6.78529 9.80497 6.90422 9.89141 7.05458C9.97785 7.20495 10.0141 7.37894 9.99503 7.55132C9.90644 8.22754 9.57531 8.84858 9.0632 9.29898C8.55108 9.74939 7.89284 9.9985 7.21084 10ZM2.54883 0.801169C2.06558 0.863291 1.62154 1.09942 1.29985 1.46536C0.978162 1.83129 0.800882 2.30193 0.801205 2.78916C0.802531 4.48869 1.47826 6.11824 2.68001 7.31999C3.88176 8.52174 5.51131 9.19747 7.21084 9.1988C7.69807 9.19912 8.16871 9.02184 8.53464 8.70015C8.90058 8.37846 9.13671 7.93442 9.19883 7.45117L6.8503 6.44966L5.59842 7.28592C5.48323 7.36207 5.35031 7.40716 5.21257 7.41681C5.07482 7.42646 4.93692 7.40035 4.81224 7.341C3.8793 6.88972 3.12466 6.1386 2.66901 5.20779C2.60894 5.08354 2.58198 4.94587 2.59075 4.80812C2.59953 4.67038 2.64373 4.53725 2.71909 4.42161L3.55535 3.1497L2.54883 0.801169Z" fill="#BF0902"/>
</svg>
