<svg width="922" height="76" viewBox="0 0 922 76" fill="none" xmlns="http://www.w3.org/2000/svg">
<mask id="path-1-inside-1_1341_4094" fill="white">
<path d="M661.821 36.6519V23.8519C661.821 23.3778 660.814 22.9037 658.298 22.9037H611.947C609.428 22.9037 608.421 23.3778 608.421 23.8519V37.6H658.298C660.814 37.6 661.821 37.1259 661.821 36.6519ZM589.78 14.3704C593.307 12.9481 599.353 12 608.421 12H662.827C671.394 12 677.439 12.9481 680.967 14.3704C684.496 15.7926 686.508 18.163 686.508 21.4815V39.0222C686.508 41.8666 684.999 43.763 682.477 45.1852C679.961 46.6074 675.426 47.5556 669.381 48.0296L691.043 75.5258H665.853L644.19 48.0296H608.421V75.5258H584.239V21.4815C584.239 18.163 585.75 16.2667 589.78 14.3704ZM534.363 65.0963C536.882 65.0963 537.889 64.6222 537.889 64.1481V23.8519C537.889 23.3778 536.882 22.9037 534.363 22.9037H488.014C487.007 22.9037 485.999 22.9037 485.495 23.3778C484.991 23.3778 484.488 23.8519 484.488 23.8519V64.1481C484.488 64.6222 484.991 64.6223 485.495 64.6223C485.999 64.6223 487.007 65.0963 488.014 65.0963H534.363ZM460.306 21.4815C460.306 18.637 462.321 16.2667 465.847 14.3704C469.374 12.9481 475.419 12 483.984 12H538.393C546.958 12 553.003 12.9481 556.53 14.3704C560.056 15.7926 562.071 18.163 562.071 21.4815V66.5185C562.071 69.837 560.056 72.2071 556.53 73.6297C553.003 75.0516 546.958 76 538.393 76H483.984C475.419 76 469.374 75.0516 465.847 73.6297C462.321 72.2071 460.306 69.837 460.306 66.5185V21.4815ZM413.956 36.6519V23.8519C413.956 23.3778 412.949 22.9037 410.43 22.9037H364.081C361.562 22.9037 360.554 23.3778 360.554 23.8519V37.6H410.43C412.949 37.6 413.956 37.1259 413.956 36.6519ZM341.914 14.3704C345.44 12.9481 351.486 12 360.05 12H414.46C423.025 12 429.07 12.9481 433.101 14.3704C436.627 15.7926 438.642 18.163 438.642 21.4815V39.0222C438.642 41.8666 437.131 43.763 434.612 45.1852C432.093 46.6074 427.559 47.5556 421.514 48.0296L443.176 75.5258H417.987L396.324 48.0296H360.554V75.5258H336.372V21.4815C336.372 18.163 337.884 16.2667 341.914 14.3704ZM290.023 36.6519V23.8519C290.023 23.3778 289.016 22.9037 286.497 22.9037H240.148C237.629 22.9037 236.621 23.3778 236.621 23.8519V37.6H286.497C289.016 37.6 290.023 37.1259 290.023 36.6519ZM217.981 14.3704C221.508 12.9481 227.553 12 236.118 12H290.527C299.092 12 305.137 12.9481 309.168 14.3704C312.694 15.7926 314.709 18.163 314.709 21.4815V39.0222C314.709 41.8666 313.198 43.763 310.679 45.1852C308.16 46.6074 303.626 47.5556 297.58 48.0296L319.243 75.5258H294.054L272.391 48.0296H236.621V75.5258H212.439V21.4815C212.439 18.163 213.951 16.2667 217.981 14.3704ZM166.594 12H190.776V76H166.594V12ZM98.5823 22.9037V76H73.8962V22.9037H51.2255V76H27.0435V12H121.757C130.321 12 136.367 12.9481 140.397 14.3704C143.923 15.7926 145.939 18.163 145.939 21.4815V76H121.253V23.8519C121.253 23.3778 120.749 23.3778 120.245 23.3778C119.741 23.3778 118.734 22.9037 117.726 22.9037H98.5823Z"/>
</mask>
<path d="M661.821 36.6519V23.8519C661.821 23.3778 660.814 22.9037 658.298 22.9037H611.947C609.428 22.9037 608.421 23.3778 608.421 23.8519V37.6H658.298C660.814 37.6 661.821 37.1259 661.821 36.6519ZM589.78 14.3704C593.307 12.9481 599.353 12 608.421 12H662.827C671.394 12 677.439 12.9481 680.967 14.3704C684.496 15.7926 686.508 18.163 686.508 21.4815V39.0222C686.508 41.8666 684.999 43.763 682.477 45.1852C679.961 46.6074 675.426 47.5556 669.381 48.0296L691.043 75.5258H665.853L644.19 48.0296H608.421V75.5258H584.239V21.4815C584.239 18.163 585.75 16.2667 589.78 14.3704ZM534.363 65.0963C536.882 65.0963 537.889 64.6222 537.889 64.1481V23.8519C537.889 23.3778 536.882 22.9037 534.363 22.9037H488.014C487.007 22.9037 485.999 22.9037 485.495 23.3778C484.991 23.3778 484.488 23.8519 484.488 23.8519V64.1481C484.488 64.6222 484.991 64.6223 485.495 64.6223C485.999 64.6223 487.007 65.0963 488.014 65.0963H534.363ZM460.306 21.4815C460.306 18.637 462.321 16.2667 465.847 14.3704C469.374 12.9481 475.419 12 483.984 12H538.393C546.958 12 553.003 12.9481 556.53 14.3704C560.056 15.7926 562.071 18.163 562.071 21.4815V66.5185C562.071 69.837 560.056 72.2071 556.53 73.6297C553.003 75.0516 546.958 76 538.393 76H483.984C475.419 76 469.374 75.0516 465.847 73.6297C462.321 72.2071 460.306 69.837 460.306 66.5185V21.4815ZM413.956 36.6519V23.8519C413.956 23.3778 412.949 22.9037 410.43 22.9037H364.081C361.562 22.9037 360.554 23.3778 360.554 23.8519V37.6H410.43C412.949 37.6 413.956 37.1259 413.956 36.6519ZM341.914 14.3704C345.44 12.9481 351.486 12 360.05 12H414.46C423.025 12 429.07 12.9481 433.101 14.3704C436.627 15.7926 438.642 18.163 438.642 21.4815V39.0222C438.642 41.8666 437.131 43.763 434.612 45.1852C432.093 46.6074 427.559 47.5556 421.514 48.0296L443.176 75.5258H417.987L396.324 48.0296H360.554V75.5258H336.372V21.4815C336.372 18.163 337.884 16.2667 341.914 14.3704ZM290.023 36.6519V23.8519C290.023 23.3778 289.016 22.9037 286.497 22.9037H240.148C237.629 22.9037 236.621 23.3778 236.621 23.8519V37.6H286.497C289.016 37.6 290.023 37.1259 290.023 36.6519ZM217.981 14.3704C221.508 12.9481 227.553 12 236.118 12H290.527C299.092 12 305.137 12.9481 309.168 14.3704C312.694 15.7926 314.709 18.163 314.709 21.4815V39.0222C314.709 41.8666 313.198 43.763 310.679 45.1852C308.16 46.6074 303.626 47.5556 297.58 48.0296L319.243 75.5258H294.054L272.391 48.0296H236.621V75.5258H212.439V21.4815C212.439 18.163 213.951 16.2667 217.981 14.3704ZM166.594 12H190.776V76H166.594V12ZM98.5823 22.9037V76H73.8962V22.9037H51.2255V76H27.0435V12H121.757C130.321 12 136.367 12.9481 140.397 14.3704C143.923 15.7926 145.939 18.163 145.939 21.4815V76H121.253V23.8519C121.253 23.3778 120.749 23.3778 120.245 23.3778C119.741 23.3778 118.734 22.9037 117.726 22.9037H98.5823Z" stroke="#BF0902" stroke-width="2" mask="url(#path-1-inside-1_1341_4094)"/>
<mask id="mask0_1341_4094" style="mask-type:alpha" maskUnits="userSpaceOnUse" x="0" y="0" width="922" height="68">
<rect x="0.5" y="0.5" width="920.087" height="66.7391" rx="9.5" fill="#DEDEDE" stroke="#BF0902"/>
</mask>
<g mask="url(#mask0_1341_4094)">
<mask id="path-3-inside-2_1341_4094" fill="white">
<path d="M647.335 26.4715V13.5845C647.335 13.1073 646.328 12.6299 643.811 12.6299H597.448C594.928 12.6299 593.921 13.1073 593.921 13.5845V27.4261H643.811C646.328 27.4261 647.335 26.9488 647.335 26.4715ZM575.275 4.03863C578.803 2.60675 584.85 1.65216 593.921 1.65216H648.341C656.91 1.65216 662.957 2.60675 666.486 4.03863C670.015 5.47052 672.029 7.857 672.029 11.1981V28.8579C672.029 31.7217 670.519 33.6309 667.996 35.0628C665.479 36.4947 660.943 37.4493 654.897 37.9265L676.565 65.6095H651.368L629.7 37.9265H593.921V65.6095H569.732V11.1981C569.732 7.857 571.244 5.94781 575.275 4.03863ZM519.843 55.1092C522.363 55.1092 523.371 54.6318 523.371 54.1546V13.5845C523.371 13.1073 522.363 12.6299 519.843 12.6299H473.483C472.475 12.6299 471.467 12.6299 470.963 13.1073C470.459 13.1073 469.955 13.5845 469.955 13.5845V54.1546C469.955 54.6318 470.459 54.6319 470.963 54.6319C471.467 54.6319 472.475 55.1092 473.483 55.1092H519.843ZM445.767 11.1981C445.767 8.33428 447.782 5.94781 451.309 4.03863C454.837 2.60675 460.884 1.65216 469.451 1.65216H523.875C532.441 1.65216 538.489 2.60675 542.016 4.03863C545.543 5.47052 547.559 7.857 547.559 11.1981V56.541C547.559 59.8821 545.543 62.2683 542.016 63.7005C538.489 65.1321 532.441 66.0869 523.875 66.0869H469.451C460.884 66.0869 454.837 65.1321 451.309 63.7005C447.782 62.2683 445.767 59.8821 445.767 56.541V11.1981ZM399.405 26.4715V13.5845C399.405 13.1073 398.397 12.6299 395.878 12.6299H349.517C346.997 12.6299 345.989 13.1073 345.989 13.5845V27.4261H395.878C398.397 27.4261 399.405 26.9488 399.405 26.4715ZM327.344 4.03863C330.871 2.60675 336.919 1.65216 345.485 1.65216H399.909C408.476 1.65216 414.523 2.60675 418.555 4.03863C422.082 5.47052 424.098 7.857 424.098 11.1981V28.8579C424.098 31.7217 422.586 33.6309 420.067 35.0628C417.547 36.4947 413.011 37.4493 406.965 37.9265L428.633 65.6095H403.437L381.768 37.9265H345.989V65.6095H321.801V11.1981C321.801 7.857 323.313 5.94781 327.344 4.03863ZM275.44 26.4715V13.5845C275.44 13.1073 274.432 12.6299 271.913 12.6299H225.551C223.032 12.6299 222.024 13.1073 222.024 13.5845V27.4261H271.913C274.432 27.4261 275.44 26.9488 275.44 26.4715ZM203.379 4.03863C206.906 2.60675 212.953 1.65216 221.52 1.65216H275.944C284.511 1.65216 290.557 2.60675 294.589 4.03863C298.117 5.47052 300.132 7.857 300.132 11.1981V28.8579C300.132 31.7217 298.621 33.6309 296.101 35.0628C293.581 36.4947 289.046 37.4493 282.999 37.9265L304.667 65.6095H279.471L257.803 37.9265H222.024V65.6095H197.835V11.1981C197.835 7.857 199.347 5.94781 203.379 4.03863ZM151.979 1.65216H176.167V66.0869H151.979V1.65216ZM83.9486 12.6299V66.0869H59.2561V12.6299H36.5795V66.0869H12.3911V1.65216H107.129C115.696 1.65216 121.743 2.60675 125.774 4.03863C129.302 5.47052 131.317 7.857 131.317 11.1981V66.0869H106.625V13.5845C106.625 13.1073 106.121 13.1073 105.617 13.1073C105.113 13.1073 104.105 12.6299 103.097 12.6299H83.9486Z"/>
</mask>
<path d="M647.335 26.4715V13.5845C647.335 13.1073 646.328 12.6299 643.811 12.6299H597.448C594.928 12.6299 593.921 13.1073 593.921 13.5845V27.4261H643.811C646.328 27.4261 647.335 26.9488 647.335 26.4715ZM575.275 4.03863C578.803 2.60675 584.85 1.65216 593.921 1.65216H648.341C656.91 1.65216 662.957 2.60675 666.486 4.03863C670.015 5.47052 672.029 7.857 672.029 11.1981V28.8579C672.029 31.7217 670.519 33.6309 667.996 35.0628C665.479 36.4947 660.943 37.4493 654.897 37.9265L676.565 65.6095H651.368L629.7 37.9265H593.921V65.6095H569.732V11.1981C569.732 7.857 571.244 5.94781 575.275 4.03863ZM519.843 55.1092C522.363 55.1092 523.371 54.6318 523.371 54.1546V13.5845C523.371 13.1073 522.363 12.6299 519.843 12.6299H473.483C472.475 12.6299 471.467 12.6299 470.963 13.1073C470.459 13.1073 469.955 13.5845 469.955 13.5845V54.1546C469.955 54.6318 470.459 54.6319 470.963 54.6319C471.467 54.6319 472.475 55.1092 473.483 55.1092H519.843ZM445.767 11.1981C445.767 8.33428 447.782 5.94781 451.309 4.03863C454.837 2.60675 460.884 1.65216 469.451 1.65216H523.875C532.441 1.65216 538.489 2.60675 542.016 4.03863C545.543 5.47052 547.559 7.857 547.559 11.1981V56.541C547.559 59.8821 545.543 62.2683 542.016 63.7005C538.489 65.1321 532.441 66.0869 523.875 66.0869H469.451C460.884 66.0869 454.837 65.1321 451.309 63.7005C447.782 62.2683 445.767 59.8821 445.767 56.541V11.1981ZM399.405 26.4715V13.5845C399.405 13.1073 398.397 12.6299 395.878 12.6299H349.517C346.997 12.6299 345.989 13.1073 345.989 13.5845V27.4261H395.878C398.397 27.4261 399.405 26.9488 399.405 26.4715ZM327.344 4.03863C330.871 2.60675 336.919 1.65216 345.485 1.65216H399.909C408.476 1.65216 414.523 2.60675 418.555 4.03863C422.082 5.47052 424.098 7.857 424.098 11.1981V28.8579C424.098 31.7217 422.586 33.6309 420.067 35.0628C417.547 36.4947 413.011 37.4493 406.965 37.9265L428.633 65.6095H403.437L381.768 37.9265H345.989V65.6095H321.801V11.1981C321.801 7.857 323.313 5.94781 327.344 4.03863ZM275.44 26.4715V13.5845C275.44 13.1073 274.432 12.6299 271.913 12.6299H225.551C223.032 12.6299 222.024 13.1073 222.024 13.5845V27.4261H271.913C274.432 27.4261 275.44 26.9488 275.44 26.4715ZM203.379 4.03863C206.906 2.60675 212.953 1.65216 221.52 1.65216H275.944C284.511 1.65216 290.557 2.60675 294.589 4.03863C298.117 5.47052 300.132 7.857 300.132 11.1981V28.8579C300.132 31.7217 298.621 33.6309 296.101 35.0628C293.581 36.4947 289.046 37.4493 282.999 37.9265L304.667 65.6095H279.471L257.803 37.9265H222.024V65.6095H197.835V11.1981C197.835 7.857 199.347 5.94781 203.379 4.03863ZM151.979 1.65216H176.167V66.0869H151.979V1.65216ZM83.9486 12.6299V66.0869H59.2561V12.6299H36.5795V66.0869H12.3911V1.65216H107.129C115.696 1.65216 121.743 2.60675 125.774 4.03863C129.302 5.47052 131.317 7.857 131.317 11.1981V66.0869H106.625V13.5845C106.625 13.1073 106.121 13.1073 105.617 13.1073C105.113 13.1073 104.105 12.6299 103.097 12.6299H83.9486Z" fill="#BF0902" stroke="#BF0902" stroke-width="2" mask="url(#path-3-inside-2_1341_4094)"/>
</g>
</svg>
