<svg
  width="804"
  height="78"
  viewBox="0 0 804 78"
  fill="none"
  xmlns="http://www.w3.org/2000/svg"
>
<mask id="path-1-inside-1_416_3303" fill="white">
<path
      d="M768.616 30.0445V14.4445C768.616 13.8667 767.397 13.2889 764.351 13.2889H708.227C705.177 13.2889 703.957 13.8667 703.957 14.4445V31.2H764.351C767.397 31.2 768.616 30.6222 768.616 30.0445ZM681.386 2.88889C685.656 1.15556 692.977 0 703.957 0H769.835C780.208 0 787.527 1.15556 791.799 2.88889C796.072 4.62222 798.509 7.51112 798.509 11.5556V32.9333C798.509 36.4 796.681 38.7111 793.627 40.4444C790.581 42.1778 785.089 43.3333 777.77 43.9111L804 77.4221H773.498L747.268 43.9111H703.957V77.4221H674.676V11.5556C674.676 7.51112 676.506 5.2 681.386 2.88889ZM614.284 64.7111C617.334 64.7111 618.555 64.1333 618.555 63.5555V14.4445C618.555 13.8667 617.334 13.2889 614.284 13.2889H558.163C556.943 13.2889 555.723 13.2889 555.113 13.8667C554.503 13.8667 553.893 14.4445 553.893 14.4445V63.5555C553.893 64.1333 554.503 64.1334 555.113 64.1334C555.723 64.1334 556.943 64.7111 558.163 64.7111H614.284ZM524.613 11.5556C524.613 8.08888 527.053 5.2 531.322 2.88889C535.593 1.15556 542.913 0 553.283 0H619.165C629.535 0 636.855 1.15556 641.125 2.88889C645.395 4.62222 647.835 7.51112 647.835 11.5556V66.4444C647.835 70.4889 645.395 73.3774 641.125 75.1112C636.855 76.8442 629.535 78 619.165 78H553.283C542.913 78 535.593 76.8442 531.322 75.1112C527.053 73.3774 524.613 70.4889 524.613 66.4444V11.5556ZM468.491 30.0445V14.4445C468.491 13.8667 467.271 13.2889 464.221 13.2889H408.1C405.049 13.2889 403.829 13.8667 403.829 14.4445V31.2H464.221C467.271 31.2 468.491 30.6222 468.491 30.0445ZM381.259 2.88889C385.529 1.15556 392.849 0 403.219 0H469.101C479.472 0 486.791 1.15556 491.672 2.88889C495.942 4.62222 498.381 7.51112 498.381 11.5556V32.9333C498.381 36.4 496.552 38.7111 493.502 40.4444C490.452 42.1778 484.961 43.3333 477.642 43.9111L503.872 77.4221H473.371L447.141 43.9111H403.829V77.4221H374.549V11.5556C374.549 7.51112 376.379 5.2 381.259 2.88889ZM318.427 30.0445V14.4445C318.427 13.8667 317.208 13.2889 314.158 13.2889H258.036C254.986 13.2889 253.766 13.8667 253.766 14.4445V31.2H314.158C317.208 31.2 318.427 30.6222 318.427 30.0445ZM231.196 2.88889C235.466 1.15556 242.786 0 253.156 0H319.037C329.408 0 336.728 1.15556 341.608 2.88889C345.878 4.62222 348.318 7.51112 348.318 11.5556V32.9333C348.318 36.4 346.488 38.7111 343.438 40.4444C340.388 42.1778 334.898 43.3333 327.578 43.9111L353.808 77.4221H323.308L297.077 43.9111H253.766V77.4221H224.485V11.5556C224.485 7.51112 226.315 5.2 231.196 2.88889ZM168.974 0H198.255V78H168.974V0ZM86.6223 13.2889V78H56.7313V13.2889H29.2807V78H0V0H114.683C125.053 0 132.373 1.15556 137.254 2.88889C141.523 4.62222 143.963 7.51112 143.963 11.5556V78H114.073V14.4445C114.073 13.8667 113.463 13.8667 112.853 13.8667C112.243 13.8667 111.022 13.2889 109.802 13.2889H86.6223Z"
    />
</mask>
<path
    d="M768.616 30.0445V14.4445C768.616 13.8667 767.397 13.2889 764.351 13.2889H708.227C705.177 13.2889 703.957 13.8667 703.957 14.4445V31.2H764.351C767.397 31.2 768.616 30.6222 768.616 30.0445ZM681.386 2.88889C685.656 1.15556 692.977 0 703.957 0H769.835C780.208 0 787.527 1.15556 791.799 2.88889C796.072 4.62222 798.509 7.51112 798.509 11.5556V32.9333C798.509 36.4 796.681 38.7111 793.627 40.4444C790.581 42.1778 785.089 43.3333 777.77 43.9111L804 77.4221H773.498L747.268 43.9111H703.957V77.4221H674.676V11.5556C674.676 7.51112 676.506 5.2 681.386 2.88889ZM614.284 64.7111C617.334 64.7111 618.555 64.1333 618.555 63.5555V14.4445C618.555 13.8667 617.334 13.2889 614.284 13.2889H558.163C556.943 13.2889 555.723 13.2889 555.113 13.8667C554.503 13.8667 553.893 14.4445 553.893 14.4445V63.5555C553.893 64.1333 554.503 64.1334 555.113 64.1334C555.723 64.1334 556.943 64.7111 558.163 64.7111H614.284ZM524.613 11.5556C524.613 8.08888 527.053 5.2 531.322 2.88889C535.593 1.15556 542.913 0 553.283 0H619.165C629.535 0 636.855 1.15556 641.125 2.88889C645.395 4.62222 647.835 7.51112 647.835 11.5556V66.4444C647.835 70.4889 645.395 73.3774 641.125 75.1112C636.855 76.8442 629.535 78 619.165 78H553.283C542.913 78 535.593 76.8442 531.322 75.1112C527.053 73.3774 524.613 70.4889 524.613 66.4444V11.5556ZM468.491 30.0445V14.4445C468.491 13.8667 467.271 13.2889 464.221 13.2889H408.1C405.049 13.2889 403.829 13.8667 403.829 14.4445V31.2H464.221C467.271 31.2 468.491 30.6222 468.491 30.0445ZM381.259 2.88889C385.529 1.15556 392.849 0 403.219 0H469.101C479.472 0 486.791 1.15556 491.672 2.88889C495.942 4.62222 498.381 7.51112 498.381 11.5556V32.9333C498.381 36.4 496.552 38.7111 493.502 40.4444C490.452 42.1778 484.961 43.3333 477.642 43.9111L503.872 77.4221H473.371L447.141 43.9111H403.829V77.4221H374.549V11.5556C374.549 7.51112 376.379 5.2 381.259 2.88889ZM318.427 30.0445V14.4445C318.427 13.8667 317.208 13.2889 314.158 13.2889H258.036C254.986 13.2889 253.766 13.8667 253.766 14.4445V31.2H314.158C317.208 31.2 318.427 30.6222 318.427 30.0445ZM231.196 2.88889C235.466 1.15556 242.786 0 253.156 0H319.037C329.408 0 336.728 1.15556 341.608 2.88889C345.878 4.62222 348.318 7.51112 348.318 11.5556V32.9333C348.318 36.4 346.488 38.7111 343.438 40.4444C340.388 42.1778 334.898 43.3333 327.578 43.9111L353.808 77.4221H323.308L297.077 43.9111H253.766V77.4221H224.485V11.5556C224.485 7.51112 226.315 5.2 231.196 2.88889ZM168.974 0H198.255V78H168.974V0ZM86.6223 13.2889V78H56.7313V13.2889H29.2807V78H0V0H114.683C125.053 0 132.373 1.15556 137.254 2.88889C141.523 4.62222 143.963 7.51112 143.963 11.5556V78H114.073V14.4445C114.073 13.8667 113.463 13.8667 112.853 13.8667C112.243 13.8667 111.022 13.2889 109.802 13.2889H86.6223Z"
    stroke="#BF0902"
    stroke-opacity="0.1"
    stroke-width="2"
    mask="url(#path-1-inside-1_416_3303)"
  />
</svg>
