<svg width="822" height="80" viewBox="0 0 822 80" fill="none" xmlns="http://www.w3.org/2000/svg">
<mask id="path-1-inside-1_919_4094" fill="white">
<path d="M786.616 42.0445V26.4445C786.616 25.8667 785.397 25.2889 782.351 25.2889H726.227C723.177 25.2889 721.957 25.8667 721.957 26.4445V43.2H782.351C785.397 43.2 786.616 42.6222 786.616 42.0445ZM699.386 14.8889C703.656 13.1556 710.977 12 721.957 12H787.835C798.208 12 805.527 13.1556 809.799 14.8889C814.072 16.6222 816.509 19.5111 816.509 23.5556V44.9333C816.509 48.4 814.681 50.7111 811.627 52.4444C808.581 54.1778 803.089 55.3333 795.77 55.9111L822 89.4221H791.498L765.268 55.9111H721.957V89.4221H692.676V23.5556C692.676 19.5111 694.506 17.2 699.386 14.8889ZM632.284 76.7111C635.334 76.7111 636.555 76.1333 636.555 75.5555V26.4445C636.555 25.8667 635.334 25.2889 632.284 25.2889H576.163C574.943 25.2889 573.723 25.2889 573.113 25.8667C572.503 25.8667 571.893 26.4445 571.893 26.4445V75.5555C571.893 76.1333 572.503 76.1334 573.113 76.1334C573.723 76.1334 574.943 76.7111 576.163 76.7111H632.284ZM542.612 23.5556C542.612 20.0889 545.053 17.2 549.322 14.8889C553.593 13.1556 560.913 12 571.283 12H637.165C647.535 12 654.855 13.1556 659.125 14.8889C663.395 16.6222 665.835 19.5111 665.835 23.5556V78.4444C665.835 82.4889 663.395 85.3774 659.125 87.1112C654.855 88.8442 647.535 90 637.165 90H571.283C560.913 90 553.593 88.8442 549.322 87.1112C545.053 85.3774 542.612 82.4889 542.612 78.4444V23.5556ZM486.491 42.0445V26.4445C486.491 25.8667 485.271 25.2889 482.221 25.2889H426.1C423.049 25.2889 421.829 25.8667 421.829 26.4445V43.2H482.221C485.271 43.2 486.491 42.6222 486.491 42.0445ZM399.259 14.8889C403.529 13.1556 410.849 12 421.219 12H487.101C497.472 12 504.791 13.1556 509.672 14.8889C513.942 16.6222 516.381 19.5111 516.381 23.5556V44.9333C516.381 48.4 514.552 50.7111 511.502 52.4444C508.452 54.1778 502.961 55.3333 495.642 55.9111L521.872 89.4221H491.371L465.141 55.9111H421.829V89.4221H392.549V23.5556C392.549 19.5111 394.379 17.2 399.259 14.8889ZM336.427 42.0445V26.4445C336.427 25.8667 335.208 25.2889 332.158 25.2889H276.036C272.986 25.2889 271.766 25.8667 271.766 26.4445V43.2H332.158C335.208 43.2 336.427 42.6222 336.427 42.0445ZM249.196 14.8889C253.466 13.1556 260.786 12 271.156 12H337.037C347.408 12 354.728 13.1556 359.608 14.8889C363.878 16.6222 366.318 19.5111 366.318 23.5556V44.9333C366.318 48.4 364.488 50.7111 361.438 52.4444C358.388 54.1778 352.898 55.3333 345.578 55.9111L371.808 89.4221H341.308L315.077 55.9111H271.766V89.4221H242.485V23.5556C242.485 19.5111 244.315 17.2 249.196 14.8889ZM186.974 12H216.255V90H186.974V12ZM104.622 25.2889V90H74.7313V25.2889H47.2807V90H18V12H132.683C143.053 12 150.373 13.1556 155.254 14.8889C159.523 16.6222 161.963 19.5111 161.963 23.5556V90H132.073V26.4445C132.073 25.8667 131.463 25.8667 130.853 25.8667C130.243 25.8667 129.022 25.2889 127.802 25.2889H104.622Z"/>
</mask>
<path d="M786.616 42.0445V26.4445C786.616 25.8667 785.397 25.2889 782.351 25.2889H726.227C723.177 25.2889 721.957 25.8667 721.957 26.4445V43.2H782.351C785.397 43.2 786.616 42.6222 786.616 42.0445ZM699.386 14.8889C703.656 13.1556 710.977 12 721.957 12H787.835C798.208 12 805.527 13.1556 809.799 14.8889C814.072 16.6222 816.509 19.5111 816.509 23.5556V44.9333C816.509 48.4 814.681 50.7111 811.627 52.4444C808.581 54.1778 803.089 55.3333 795.77 55.9111L822 89.4221H791.498L765.268 55.9111H721.957V89.4221H692.676V23.5556C692.676 19.5111 694.506 17.2 699.386 14.8889ZM632.284 76.7111C635.334 76.7111 636.555 76.1333 636.555 75.5555V26.4445C636.555 25.8667 635.334 25.2889 632.284 25.2889H576.163C574.943 25.2889 573.723 25.2889 573.113 25.8667C572.503 25.8667 571.893 26.4445 571.893 26.4445V75.5555C571.893 76.1333 572.503 76.1334 573.113 76.1334C573.723 76.1334 574.943 76.7111 576.163 76.7111H632.284ZM542.612 23.5556C542.612 20.0889 545.053 17.2 549.322 14.8889C553.593 13.1556 560.913 12 571.283 12H637.165C647.535 12 654.855 13.1556 659.125 14.8889C663.395 16.6222 665.835 19.5111 665.835 23.5556V78.4444C665.835 82.4889 663.395 85.3774 659.125 87.1112C654.855 88.8442 647.535 90 637.165 90H571.283C560.913 90 553.593 88.8442 549.322 87.1112C545.053 85.3774 542.612 82.4889 542.612 78.4444V23.5556ZM486.491 42.0445V26.4445C486.491 25.8667 485.271 25.2889 482.221 25.2889H426.1C423.049 25.2889 421.829 25.8667 421.829 26.4445V43.2H482.221C485.271 43.2 486.491 42.6222 486.491 42.0445ZM399.259 14.8889C403.529 13.1556 410.849 12 421.219 12H487.101C497.472 12 504.791 13.1556 509.672 14.8889C513.942 16.6222 516.381 19.5111 516.381 23.5556V44.9333C516.381 48.4 514.552 50.7111 511.502 52.4444C508.452 54.1778 502.961 55.3333 495.642 55.9111L521.872 89.4221H491.371L465.141 55.9111H421.829V89.4221H392.549V23.5556C392.549 19.5111 394.379 17.2 399.259 14.8889ZM336.427 42.0445V26.4445C336.427 25.8667 335.208 25.2889 332.158 25.2889H276.036C272.986 25.2889 271.766 25.8667 271.766 26.4445V43.2H332.158C335.208 43.2 336.427 42.6222 336.427 42.0445ZM249.196 14.8889C253.466 13.1556 260.786 12 271.156 12H337.037C347.408 12 354.728 13.1556 359.608 14.8889C363.878 16.6222 366.318 19.5111 366.318 23.5556V44.9333C366.318 48.4 364.488 50.7111 361.438 52.4444C358.388 54.1778 352.898 55.3333 345.578 55.9111L371.808 89.4221H341.308L315.077 55.9111H271.766V89.4221H242.485V23.5556C242.485 19.5111 244.315 17.2 249.196 14.8889ZM186.974 12H216.255V90H186.974V12ZM104.622 25.2889V90H74.7313V25.2889H47.2807V90H18V12H132.683C143.053 12 150.373 13.1556 155.254 14.8889C159.523 16.6222 161.963 19.5111 161.963 23.5556V90H132.073V26.4445C132.073 25.8667 131.463 25.8667 130.853 25.8667C130.243 25.8667 129.022 25.2889 127.802 25.2889H104.622Z" stroke="#BF0902" stroke-width="2" mask="url(#path-1-inside-1_919_4094)"/>
<mask id="path-2-inside-2_919_4094" fill="white">
<path d="M768.616 30.0445V14.4445C768.616 13.8667 767.397 13.2889 764.351 13.2889H708.227C705.177 13.2889 703.957 13.8667 703.957 14.4445V31.2H764.351C767.397 31.2 768.616 30.6222 768.616 30.0445ZM681.386 2.88889C685.656 1.15556 692.977 0 703.957 0H769.835C780.208 0 787.527 1.15556 791.799 2.88889C796.072 4.62222 798.509 7.51112 798.509 11.5556V32.9333C798.509 36.4 796.681 38.7111 793.627 40.4444C790.581 42.1778 785.089 43.3333 777.77 43.9111L804 77.4221H773.498L747.268 43.9111H703.957V77.4221H674.676V11.5556C674.676 7.51112 676.506 5.2 681.386 2.88889ZM614.284 64.7111C617.334 64.7111 618.555 64.1333 618.555 63.5555V14.4445C618.555 13.8667 617.334 13.2889 614.284 13.2889H558.163C556.943 13.2889 555.723 13.2889 555.113 13.8667C554.503 13.8667 553.893 14.4445 553.893 14.4445V63.5555C553.893 64.1333 554.503 64.1334 555.113 64.1334C555.723 64.1334 556.943 64.7111 558.163 64.7111H614.284ZM524.612 11.5556C524.612 8.08888 527.053 5.2 531.322 2.88889C535.593 1.15556 542.913 0 553.283 0H619.165C629.535 0 636.855 1.15556 641.125 2.88889C645.395 4.62222 647.835 7.51112 647.835 11.5556V66.4444C647.835 70.4889 645.395 73.3774 641.125 75.1112C636.855 76.8442 629.535 78 619.165 78H553.283C542.913 78 535.593 76.8442 531.322 75.1112C527.053 73.3774 524.612 70.4889 524.612 66.4444V11.5556ZM468.491 30.0445V14.4445C468.491 13.8667 467.271 13.2889 464.221 13.2889H408.1C405.049 13.2889 403.829 13.8667 403.829 14.4445V31.2H464.221C467.271 31.2 468.491 30.6222 468.491 30.0445ZM381.259 2.88889C385.529 1.15556 392.849 0 403.219 0H469.101C479.472 0 486.791 1.15556 491.672 2.88889C495.942 4.62222 498.381 7.51112 498.381 11.5556V32.9333C498.381 36.4 496.552 38.7111 493.502 40.4444C490.452 42.1778 484.961 43.3333 477.642 43.9111L503.872 77.4221H473.371L447.141 43.9111H403.829V77.4221H374.549V11.5556C374.549 7.51112 376.379 5.2 381.259 2.88889ZM318.427 30.0445V14.4445C318.427 13.8667 317.208 13.2889 314.158 13.2889H258.036C254.986 13.2889 253.766 13.8667 253.766 14.4445V31.2H314.158C317.208 31.2 318.427 30.6222 318.427 30.0445ZM231.196 2.88889C235.466 1.15556 242.786 0 253.156 0H319.037C329.408 0 336.728 1.15556 341.608 2.88889C345.878 4.62222 348.318 7.51112 348.318 11.5556V32.9333C348.318 36.4 346.488 38.7111 343.438 40.4444C340.388 42.1778 334.898 43.3333 327.578 43.9111L353.808 77.4221H323.308L297.077 43.9111H253.766V77.4221H224.485V11.5556C224.485 7.51112 226.315 5.2 231.196 2.88889ZM168.974 0H198.255V78H168.974V0ZM86.6223 13.2889V78H56.7313V13.2889H29.2807V78H0V0H114.683C125.053 0 132.373 1.15556 137.254 2.88889C141.523 4.62222 143.963 7.51112 143.963 11.5556V78H114.073V14.4445C114.073 13.8667 113.463 13.8667 112.853 13.8667C112.243 13.8667 111.022 13.2889 109.802 13.2889H86.6223Z"/>
</mask>
<path d="M768.616 30.0445V14.4445C768.616 13.8667 767.397 13.2889 764.351 13.2889H708.227C705.177 13.2889 703.957 13.8667 703.957 14.4445V31.2H764.351C767.397 31.2 768.616 30.6222 768.616 30.0445ZM681.386 2.88889C685.656 1.15556 692.977 0 703.957 0H769.835C780.208 0 787.527 1.15556 791.799 2.88889C796.072 4.62222 798.509 7.51112 798.509 11.5556V32.9333C798.509 36.4 796.681 38.7111 793.627 40.4444C790.581 42.1778 785.089 43.3333 777.77 43.9111L804 77.4221H773.498L747.268 43.9111H703.957V77.4221H674.676V11.5556C674.676 7.51112 676.506 5.2 681.386 2.88889ZM614.284 64.7111C617.334 64.7111 618.555 64.1333 618.555 63.5555V14.4445C618.555 13.8667 617.334 13.2889 614.284 13.2889H558.163C556.943 13.2889 555.723 13.2889 555.113 13.8667C554.503 13.8667 553.893 14.4445 553.893 14.4445V63.5555C553.893 64.1333 554.503 64.1334 555.113 64.1334C555.723 64.1334 556.943 64.7111 558.163 64.7111H614.284ZM524.612 11.5556C524.612 8.08888 527.053 5.2 531.322 2.88889C535.593 1.15556 542.913 0 553.283 0H619.165C629.535 0 636.855 1.15556 641.125 2.88889C645.395 4.62222 647.835 7.51112 647.835 11.5556V66.4444C647.835 70.4889 645.395 73.3774 641.125 75.1112C636.855 76.8442 629.535 78 619.165 78H553.283C542.913 78 535.593 76.8442 531.322 75.1112C527.053 73.3774 524.612 70.4889 524.612 66.4444V11.5556ZM468.491 30.0445V14.4445C468.491 13.8667 467.271 13.2889 464.221 13.2889H408.1C405.049 13.2889 403.829 13.8667 403.829 14.4445V31.2H464.221C467.271 31.2 468.491 30.6222 468.491 30.0445ZM381.259 2.88889C385.529 1.15556 392.849 0 403.219 0H469.101C479.472 0 486.791 1.15556 491.672 2.88889C495.942 4.62222 498.381 7.51112 498.381 11.5556V32.9333C498.381 36.4 496.552 38.7111 493.502 40.4444C490.452 42.1778 484.961 43.3333 477.642 43.9111L503.872 77.4221H473.371L447.141 43.9111H403.829V77.4221H374.549V11.5556C374.549 7.51112 376.379 5.2 381.259 2.88889ZM318.427 30.0445V14.4445C318.427 13.8667 317.208 13.2889 314.158 13.2889H258.036C254.986 13.2889 253.766 13.8667 253.766 14.4445V31.2H314.158C317.208 31.2 318.427 30.6222 318.427 30.0445ZM231.196 2.88889C235.466 1.15556 242.786 0 253.156 0H319.037C329.408 0 336.728 1.15556 341.608 2.88889C345.878 4.62222 348.318 7.51112 348.318 11.5556V32.9333C348.318 36.4 346.488 38.7111 343.438 40.4444C340.388 42.1778 334.898 43.3333 327.578 43.9111L353.808 77.4221H323.308L297.077 43.9111H253.766V77.4221H224.485V11.5556C224.485 7.51112 226.315 5.2 231.196 2.88889ZM168.974 0H198.255V78H168.974V0ZM86.6223 13.2889V78H56.7313V13.2889H29.2807V78H0V0H114.683C125.053 0 132.373 1.15556 137.254 2.88889C141.523 4.62222 143.963 7.51112 143.963 11.5556V78H114.073V14.4445C114.073 13.8667 113.463 13.8667 112.853 13.8667C112.243 13.8667 111.022 13.2889 109.802 13.2889H86.6223Z" fill="#BF0902" stroke="#BF0902" stroke-width="2" mask="url(#path-2-inside-2_919_4094)"/>
</svg>
